<svg id="Layer_1" data-name="Layer 1" xmlns="http://www.w3.org/2000/svg" viewBox="0 0 283.46 283.46"><defs><style>.cls-1{fill:none;}.cls-2{fill:#fff;}.cls-3{fill:#ffb902;}</style></defs><rect class="cls-1" width="283.46" height="283.46"/><path class="cls-2" d="M239.71,194.93a79.31,79.31,0,0,0-23.08,26.48c-18.07,32.67-46,49.33-83.4,50.67Q81,269.83,51.92,226.21c-6.38-9.57-10.3-20.1-13.1-31.13a86.6,86.6,0,0,0-14.94-30.77C-2.9,128.5,11.13,76.43,52.38,59.24a116.56,116.56,0,0,0,38.38-25.5c21.39-21.46,59.16-24.85,84.47-7.55,7.5,5.12,13.61,12.28,21.07,17.47a198.17,198.17,0,0,0,28.16,16.82C269.66,81.82,288.89,142,252,183.94A75.18,75.18,0,0,1,239.71,194.93Z"/><circle class="cls-3" cx="138.37" cy="140.8" r="49.03"/><ellipse class="cls-2" cx="116.78" cy="113.2" rx="10.12" ry="7.54" transform="translate(-45.84 115.73) rotate(-45)"/></svg>